<svg width="1728" height="581" viewBox="0 0 1728 581" fill="none" xmlns="http://www.w3.org/2000/svg">
<rect width="1728" height="581" fill="#838383"/>
<path d="M343.682 279V252.818H347.705V279H343.682ZM345.727 248.455C344.943 248.455 344.267 248.188 343.699 247.653C343.142 247.119 342.864 246.477 342.864 245.727C342.864 244.977 343.142 244.335 343.699 243.801C344.267 243.267 344.943 243 345.727 243C346.511 243 347.182 243.267 347.739 243.801C348.307 244.335 348.591 244.977 348.591 245.727C348.591 246.477 348.307 247.119 347.739 247.653C347.182 248.188 346.511 248.455 345.727 248.455ZM359.095 263.25V279H355.072V252.818H358.959V256.909H359.3C359.913 255.58 360.845 254.511 362.095 253.705C363.345 252.886 364.959 252.477 366.936 252.477C368.709 252.477 370.26 252.841 371.589 253.568C372.919 254.284 373.953 255.375 374.692 256.841C375.43 258.295 375.8 260.136 375.8 262.364V279H371.777V262.636C371.777 260.58 371.243 258.977 370.175 257.83C369.107 256.67 367.641 256.091 365.777 256.091C364.493 256.091 363.345 256.369 362.334 256.926C361.334 257.483 360.544 258.295 359.964 259.364C359.385 260.432 359.095 261.727 359.095 263.25ZM401.696 258.682L398.082 259.705C397.855 259.102 397.52 258.517 397.077 257.949C396.645 257.369 396.054 256.892 395.304 256.517C394.554 256.142 393.594 255.955 392.423 255.955C390.821 255.955 389.486 256.324 388.418 257.062C387.361 257.79 386.832 258.716 386.832 259.841C386.832 260.841 387.196 261.631 387.923 262.21C388.651 262.79 389.787 263.273 391.332 263.659L395.219 264.614C397.56 265.182 399.304 266.051 400.452 267.222C401.599 268.381 402.173 269.875 402.173 271.705C402.173 273.205 401.741 274.545 400.878 275.727C400.026 276.909 398.832 277.841 397.298 278.523C395.764 279.205 393.98 279.545 391.946 279.545C389.276 279.545 387.065 278.966 385.315 277.807C383.565 276.648 382.457 274.955 381.991 272.727L385.81 271.773C386.173 273.182 386.861 274.239 387.872 274.943C388.895 275.648 390.23 276 391.878 276C393.753 276 395.241 275.602 396.344 274.807C397.457 274 398.014 273.034 398.014 271.909C398.014 271 397.696 270.239 397.06 269.625C396.423 269 395.446 268.534 394.128 268.227L389.764 267.205C387.366 266.636 385.605 265.756 384.48 264.562C383.366 263.358 382.81 261.852 382.81 260.045C382.81 258.568 383.224 257.261 384.054 256.125C384.895 254.989 386.037 254.097 387.48 253.449C388.935 252.801 390.582 252.477 392.423 252.477C395.014 252.477 397.048 253.045 398.526 254.182C400.014 255.318 401.071 256.818 401.696 258.682ZM419.206 279.545C416.683 279.545 414.507 278.989 412.678 277.875C410.859 276.75 409.456 275.182 408.467 273.17C407.49 271.148 407.001 268.795 407.001 266.114C407.001 263.432 407.49 261.068 408.467 259.023C409.456 256.966 410.831 255.364 412.592 254.216C414.365 253.057 416.433 252.477 418.797 252.477C420.161 252.477 421.507 252.705 422.837 253.159C424.166 253.614 425.376 254.352 426.467 255.375C427.558 256.386 428.428 257.727 429.075 259.398C429.723 261.068 430.047 263.125 430.047 265.568V267.273H409.865V263.795H425.956C425.956 262.318 425.661 261 425.07 259.841C424.49 258.682 423.661 257.767 422.581 257.097C421.513 256.426 420.251 256.091 418.797 256.091C417.195 256.091 415.808 256.489 414.638 257.284C413.479 258.068 412.587 259.091 411.962 260.352C411.337 261.614 411.024 262.966 411.024 264.409V266.727C411.024 268.705 411.365 270.381 412.047 271.756C412.74 273.119 413.7 274.159 414.928 274.875C416.155 275.58 417.581 275.932 419.206 275.932C420.263 275.932 421.217 275.784 422.07 275.489C422.933 275.182 423.678 274.727 424.303 274.125C424.928 273.511 425.411 272.75 425.751 271.841L429.638 272.932C429.229 274.25 428.541 275.409 427.575 276.409C426.609 277.398 425.416 278.17 423.996 278.727C422.575 279.273 420.979 279.545 419.206 279.545ZM436.166 279V252.818H440.053V256.773H440.325C440.803 255.477 441.666 254.426 442.916 253.619C444.166 252.812 445.575 252.409 447.143 252.409C447.439 252.409 447.808 252.415 448.251 252.426C448.695 252.437 449.03 252.455 449.257 252.477V256.568C449.121 256.534 448.808 256.483 448.32 256.415C447.842 256.335 447.337 256.295 446.803 256.295C445.53 256.295 444.393 256.562 443.393 257.097C442.405 257.619 441.621 258.347 441.041 259.278C440.473 260.199 440.189 261.25 440.189 262.432V279H436.166ZM467.053 252.818V256.227H453.484V252.818H467.053ZM457.439 246.545H461.462V271.5C461.462 272.636 461.626 273.489 461.956 274.057C462.297 274.614 462.729 274.989 463.251 275.182C463.786 275.364 464.348 275.455 464.939 275.455C465.382 275.455 465.746 275.432 466.03 275.386C466.314 275.33 466.541 275.284 466.712 275.25L467.53 278.864C467.257 278.966 466.876 279.068 466.388 279.17C465.899 279.284 465.28 279.341 464.53 279.341C463.393 279.341 462.28 279.097 461.189 278.608C460.109 278.119 459.212 277.375 458.496 276.375C457.791 275.375 457.439 274.114 457.439 272.591V246.545ZM494.308 279.614C492.649 279.614 491.143 279.301 489.791 278.676C488.439 278.04 487.365 277.125 486.57 275.932C485.774 274.727 485.376 273.273 485.376 271.568C485.376 270.068 485.672 268.852 486.263 267.92C486.854 266.977 487.643 266.239 488.632 265.705C489.621 265.17 490.712 264.773 491.905 264.511C493.109 264.239 494.32 264.023 495.536 263.864C497.126 263.659 498.416 263.506 499.405 263.403C500.405 263.29 501.132 263.102 501.587 262.841C502.053 262.58 502.286 262.125 502.286 261.477V261.341C502.286 259.659 501.825 258.352 500.905 257.42C499.996 256.489 498.615 256.023 496.763 256.023C494.842 256.023 493.337 256.443 492.246 257.284C491.155 258.125 490.388 259.023 489.945 259.977L486.126 258.614C486.808 257.023 487.717 255.784 488.854 254.898C490.001 254 491.251 253.375 492.604 253.023C493.967 252.659 495.308 252.477 496.626 252.477C497.467 252.477 498.433 252.58 499.524 252.784C500.626 252.977 501.689 253.381 502.712 253.994C503.746 254.608 504.604 255.534 505.286 256.773C505.967 258.011 506.308 259.67 506.308 261.75V279H502.286V275.455H502.081C501.808 276.023 501.354 276.631 500.717 277.278C500.081 277.926 499.234 278.477 498.178 278.932C497.121 279.386 495.831 279.614 494.308 279.614ZM494.922 276C496.513 276 497.854 275.688 498.945 275.062C500.047 274.438 500.876 273.631 501.433 272.642C502.001 271.653 502.286 270.614 502.286 269.523V265.841C502.115 266.045 501.74 266.233 501.161 266.403C500.592 266.562 499.933 266.705 499.183 266.83C498.445 266.943 497.723 267.045 497.018 267.136C496.325 267.216 495.763 267.284 495.331 267.341C494.286 267.477 493.308 267.699 492.399 268.006C491.501 268.301 490.774 268.75 490.217 269.352C489.672 269.943 489.399 270.75 489.399 271.773C489.399 273.17 489.916 274.227 490.95 274.943C491.996 275.648 493.32 276 494.922 276ZM545.696 258.682L542.082 259.705C541.855 259.102 541.52 258.517 541.077 257.949C540.645 257.369 540.054 256.892 539.304 256.517C538.554 256.142 537.594 255.955 536.423 255.955C534.821 255.955 533.486 256.324 532.418 257.062C531.361 257.79 530.832 258.716 530.832 259.841C530.832 260.841 531.196 261.631 531.923 262.21C532.651 262.79 533.787 263.273 535.332 263.659L539.219 264.614C541.56 265.182 543.304 266.051 544.452 267.222C545.599 268.381 546.173 269.875 546.173 271.705C546.173 273.205 545.741 274.545 544.878 275.727C544.026 276.909 542.832 277.841 541.298 278.523C539.764 279.205 537.98 279.545 535.946 279.545C533.276 279.545 531.065 278.966 529.315 277.807C527.565 276.648 526.457 274.955 525.991 272.727L529.81 271.773C530.173 273.182 530.861 274.239 531.872 274.943C532.895 275.648 534.23 276 535.878 276C537.753 276 539.241 275.602 540.344 274.807C541.457 274 542.014 273.034 542.014 271.909C542.014 271 541.696 270.239 541.06 269.625C540.423 269 539.446 268.534 538.128 268.227L533.764 267.205C531.366 266.636 529.605 265.756 528.48 264.562C527.366 263.358 526.81 261.852 526.81 260.045C526.81 258.568 527.224 257.261 528.054 256.125C528.895 254.989 530.037 254.097 531.48 253.449C532.935 252.801 534.582 252.477 536.423 252.477C539.014 252.477 541.048 253.045 542.526 254.182C544.014 255.318 545.071 256.818 545.696 258.682ZM556.251 244.091V279H552.229V244.091H556.251ZM563.619 279V252.818H567.642V279H563.619ZM565.665 248.455C564.881 248.455 564.205 248.188 563.636 247.653C563.08 247.119 562.801 246.477 562.801 245.727C562.801 244.977 563.08 244.335 563.636 243.801C564.205 243.267 564.881 243 565.665 243C566.449 243 567.119 243.267 567.676 243.801C568.244 244.335 568.528 244.977 568.528 245.727C568.528 246.477 568.244 247.119 567.676 247.653C567.119 248.188 566.449 248.455 565.665 248.455ZM584.896 279.545C582.714 279.545 580.788 278.994 579.118 277.892C577.447 276.778 576.141 275.21 575.197 273.188C574.254 271.153 573.783 268.75 573.783 265.977C573.783 263.227 574.254 260.841 575.197 258.818C576.141 256.795 577.453 255.233 579.135 254.131C580.817 253.028 582.76 252.477 584.964 252.477C586.669 252.477 588.016 252.761 589.004 253.33C590.004 253.886 590.766 254.523 591.288 255.239C591.822 255.943 592.237 256.523 592.533 256.977H592.874V244.091H596.896V279H593.01V274.977H592.533C592.237 275.455 591.817 276.057 591.271 276.784C590.726 277.5 589.947 278.142 588.936 278.71C587.925 279.267 586.578 279.545 584.896 279.545ZM585.442 275.932C587.055 275.932 588.419 275.511 589.533 274.67C590.646 273.818 591.493 272.642 592.072 271.142C592.652 269.631 592.942 267.886 592.942 265.909C592.942 263.955 592.658 262.244 592.089 260.778C591.521 259.301 590.68 258.153 589.567 257.335C588.453 256.506 587.078 256.091 585.442 256.091C583.737 256.091 582.317 256.528 581.18 257.403C580.055 258.267 579.209 259.443 578.641 260.932C578.084 262.409 577.805 264.068 577.805 265.909C577.805 267.773 578.089 269.466 578.658 270.989C579.237 272.5 580.089 273.705 581.214 274.602C582.351 275.489 583.76 275.932 585.442 275.932ZM615.8 279.545C613.277 279.545 611.101 278.989 609.271 277.875C607.453 276.75 606.05 275.182 605.061 273.17C604.084 271.148 603.595 268.795 603.595 266.114C603.595 263.432 604.084 261.068 605.061 259.023C606.05 256.966 607.425 255.364 609.186 254.216C610.959 253.057 613.027 252.477 615.391 252.477C616.754 252.477 618.101 252.705 619.43 253.159C620.76 253.614 621.97 254.352 623.061 255.375C624.152 256.386 625.021 257.727 625.669 259.398C626.317 261.068 626.641 263.125 626.641 265.568V267.273H606.459V263.795H622.55C622.55 262.318 622.254 261 621.663 259.841C621.084 258.682 620.254 257.767 619.175 257.097C618.107 256.426 616.845 256.091 615.391 256.091C613.788 256.091 612.402 256.489 611.232 257.284C610.072 258.068 609.18 259.091 608.555 260.352C607.93 261.614 607.618 262.966 607.618 264.409V266.727C607.618 268.705 607.959 270.381 608.641 271.756C609.334 273.119 610.294 274.159 611.521 274.875C612.749 275.58 614.175 275.932 615.8 275.932C616.857 275.932 617.811 275.784 618.663 275.489C619.527 275.182 620.271 274.727 620.896 274.125C621.521 273.511 622.004 272.75 622.345 271.841L626.232 272.932C625.822 274.25 625.135 275.409 624.169 276.409C623.203 277.398 622.01 278.17 620.589 278.727C619.169 279.273 617.572 279.545 615.8 279.545ZM651.305 258.682L647.692 259.705C647.464 259.102 647.129 258.517 646.686 257.949C646.254 257.369 645.663 256.892 644.913 256.517C644.163 256.142 643.203 255.955 642.033 255.955C640.43 255.955 639.095 256.324 638.027 257.062C636.97 257.79 636.442 258.716 636.442 259.841C636.442 260.841 636.805 261.631 637.533 262.21C638.26 262.79 639.396 263.273 640.942 263.659L644.828 264.614C647.169 265.182 648.913 266.051 650.061 267.222C651.209 268.381 651.783 269.875 651.783 271.705C651.783 273.205 651.351 274.545 650.487 275.727C649.635 276.909 648.442 277.841 646.908 278.523C645.374 279.205 643.589 279.545 641.555 279.545C638.885 279.545 636.675 278.966 634.925 277.807C633.175 276.648 632.067 274.955 631.601 272.727L635.419 271.773C635.783 273.182 636.47 274.239 637.482 274.943C638.504 275.648 639.839 276 641.487 276C643.362 276 644.851 275.602 645.953 274.807C647.067 274 647.624 273.034 647.624 271.909C647.624 271 647.305 270.239 646.669 269.625C646.033 269 645.055 268.534 643.737 268.227L639.374 267.205C636.976 266.636 635.214 265.756 634.089 264.562C632.976 263.358 632.419 261.852 632.419 260.045C632.419 258.568 632.834 257.261 633.663 256.125C634.504 254.989 635.646 254.097 637.089 253.449C638.544 252.801 640.192 252.477 642.033 252.477C644.624 252.477 646.658 253.045 648.135 254.182C649.624 255.318 650.68 256.818 651.305 258.682ZM661.861 263.25V279H657.838V244.091H661.861V256.909H662.202C662.815 255.557 663.736 254.483 664.963 253.688C666.202 252.881 667.849 252.477 669.906 252.477C671.69 252.477 673.253 252.835 674.594 253.551C675.935 254.256 676.974 255.341 677.713 256.807C678.463 258.261 678.838 260.114 678.838 262.364V279H674.815V262.636C674.815 260.557 674.276 258.949 673.196 257.812C672.128 256.665 670.645 256.091 668.747 256.091C667.429 256.091 666.247 256.369 665.202 256.926C664.168 257.483 663.349 258.295 662.747 259.364C662.156 260.432 661.861 261.727 661.861 263.25ZM696.834 279.545C694.47 279.545 692.396 278.983 690.612 277.858C688.839 276.733 687.453 275.159 686.453 273.136C685.464 271.114 684.97 268.75 684.97 266.045C684.97 263.318 685.464 260.937 686.453 258.903C687.453 256.869 688.839 255.29 690.612 254.165C692.396 253.04 694.47 252.477 696.834 252.477C699.197 252.477 701.266 253.04 703.038 254.165C704.822 255.29 706.209 256.869 707.197 258.903C708.197 260.937 708.697 263.318 708.697 266.045C708.697 268.75 708.197 271.114 707.197 273.136C706.209 275.159 704.822 276.733 703.038 277.858C701.266 278.983 699.197 279.545 696.834 279.545ZM696.834 275.932C698.629 275.932 700.107 275.472 701.266 274.551C702.425 273.631 703.283 272.42 703.839 270.92C704.396 269.42 704.675 267.795 704.675 266.045C704.675 264.295 704.396 262.665 703.839 261.153C703.283 259.642 702.425 258.42 701.266 257.489C700.107 256.557 698.629 256.091 696.834 256.091C695.038 256.091 693.561 256.557 692.402 257.489C691.243 258.42 690.385 259.642 689.828 261.153C689.271 262.665 688.993 264.295 688.993 266.045C688.993 267.795 689.271 269.42 689.828 270.92C690.385 272.42 691.243 273.631 692.402 274.551C693.561 275.472 695.038 275.932 696.834 275.932ZM719.879 279L711.902 252.818H716.129L721.788 272.864H722.061L727.652 252.818H731.947L737.47 272.795H737.743L743.402 252.818H747.629L739.652 279H735.697L729.97 258.886H729.561L723.834 279H719.879ZM777.084 279.545C774.72 279.545 772.646 278.983 770.862 277.858C769.089 276.733 767.703 275.159 766.703 273.136C765.714 271.114 765.22 268.75 765.22 266.045C765.22 263.318 765.714 260.937 766.703 258.903C767.703 256.869 769.089 255.29 770.862 254.165C772.646 253.04 774.72 252.477 777.084 252.477C779.447 252.477 781.516 253.04 783.288 254.165C785.072 255.29 786.459 256.869 787.447 258.903C788.447 260.937 788.947 263.318 788.947 266.045C788.947 268.75 788.447 271.114 787.447 273.136C786.459 275.159 785.072 276.733 783.288 277.858C781.516 278.983 779.447 279.545 777.084 279.545ZM777.084 275.932C778.879 275.932 780.357 275.472 781.516 274.551C782.675 273.631 783.533 272.42 784.089 270.92C784.646 269.42 784.925 267.795 784.925 266.045C784.925 264.295 784.646 262.665 784.089 261.153C783.533 259.642 782.675 258.42 781.516 257.489C780.357 256.557 778.879 256.091 777.084 256.091C775.288 256.091 773.811 256.557 772.652 257.489C771.493 258.42 770.635 259.642 770.078 261.153C769.521 262.665 769.243 264.295 769.243 266.045C769.243 267.795 769.521 269.42 770.078 270.92C770.635 272.42 771.493 273.631 772.652 274.551C773.811 275.472 775.288 275.932 777.084 275.932ZM806.747 252.818V256.227H792.634V252.818H806.747ZM796.861 279V249.205C796.861 247.705 797.213 246.455 797.918 245.455C798.622 244.455 799.537 243.705 800.662 243.205C801.787 242.705 802.974 242.455 804.224 242.455C805.213 242.455 806.02 242.534 806.645 242.693C807.27 242.852 807.736 243 808.043 243.136L806.884 246.614C806.679 246.545 806.395 246.46 806.031 246.358C805.679 246.256 805.213 246.205 804.634 246.205C803.304 246.205 802.344 246.54 801.753 247.21C801.173 247.881 800.884 248.864 800.884 250.159V279H796.861ZM837.271 252.818V256.227H823.703V252.818H837.271ZM827.658 246.545H831.68V271.5C831.68 272.636 831.845 273.489 832.175 274.057C832.516 274.614 832.947 274.989 833.47 275.182C834.004 275.364 834.567 275.455 835.158 275.455C835.601 275.455 835.964 275.432 836.249 275.386C836.533 275.33 836.76 275.284 836.93 275.25L837.749 278.864C837.476 278.966 837.095 279.068 836.607 279.17C836.118 279.284 835.499 279.341 834.749 279.341C833.612 279.341 832.499 279.097 831.408 278.608C830.328 278.119 829.43 277.375 828.714 276.375C828.01 275.375 827.658 274.114 827.658 272.591V246.545ZM847.908 263.25V279H843.885V244.091H847.908V256.909H848.249C848.862 255.557 849.783 254.483 851.01 253.688C852.249 252.881 853.896 252.477 855.953 252.477C857.737 252.477 859.3 252.835 860.641 253.551C861.982 254.256 863.021 255.341 863.76 256.807C864.51 258.261 864.885 260.114 864.885 262.364V279H860.862V262.636C860.862 260.557 860.322 258.949 859.243 257.812C858.175 256.665 856.692 256.091 854.794 256.091C853.476 256.091 852.294 256.369 851.249 256.926C850.214 257.483 849.396 258.295 848.794 259.364C848.203 260.432 847.908 261.727 847.908 263.25ZM883.222 279.545C880.699 279.545 878.523 278.989 876.693 277.875C874.875 276.75 873.472 275.182 872.483 273.17C871.506 271.148 871.017 268.795 871.017 266.114C871.017 263.432 871.506 261.068 872.483 259.023C873.472 256.966 874.847 255.364 876.608 254.216C878.381 253.057 880.449 252.477 882.812 252.477C884.176 252.477 885.523 252.705 886.852 253.159C888.182 253.614 889.392 254.352 890.483 255.375C891.574 256.386 892.443 257.727 893.091 259.398C893.739 261.068 894.062 263.125 894.062 265.568V267.273H873.881V263.795H889.972C889.972 262.318 889.676 261 889.085 259.841C888.506 258.682 887.676 257.767 886.597 257.097C885.528 256.426 884.267 256.091 882.812 256.091C881.21 256.091 879.824 256.489 878.653 257.284C877.494 258.068 876.602 259.091 875.977 260.352C875.352 261.614 875.04 262.966 875.04 264.409V266.727C875.04 268.705 875.381 270.381 876.062 271.756C876.756 273.119 877.716 274.159 878.943 274.875C880.17 275.58 881.597 275.932 883.222 275.932C884.278 275.932 885.233 275.784 886.085 275.489C886.949 275.182 887.693 274.727 888.318 274.125C888.943 273.511 889.426 272.75 889.767 271.841L893.653 272.932C893.244 274.25 892.557 275.409 891.591 276.409C890.625 277.398 889.432 278.17 888.011 278.727C886.591 279.273 884.994 279.545 883.222 279.545ZM924.318 279.545C921.864 279.545 919.75 278.966 917.977 277.807C916.205 276.648 914.841 275.051 913.886 273.017C912.932 270.983 912.455 268.659 912.455 266.045C912.455 263.386 912.943 261.04 913.92 259.006C914.909 256.96 916.284 255.364 918.045 254.216C919.818 253.057 921.886 252.477 924.25 252.477C926.091 252.477 927.75 252.818 929.227 253.5C930.705 254.182 931.915 255.136 932.858 256.364C933.801 257.591 934.386 259.023 934.614 260.659H930.591C930.284 259.466 929.602 258.409 928.545 257.489C927.5 256.557 926.091 256.091 924.318 256.091C922.75 256.091 921.375 256.5 920.193 257.318C919.023 258.125 918.108 259.267 917.449 260.744C916.801 262.21 916.477 263.932 916.477 265.909C916.477 267.932 916.795 269.693 917.432 271.193C918.08 272.693 918.989 273.858 920.159 274.688C921.341 275.517 922.727 275.932 924.318 275.932C925.364 275.932 926.312 275.75 927.165 275.386C928.017 275.023 928.739 274.5 929.33 273.818C929.92 273.136 930.341 272.318 930.591 271.364H934.614C934.386 272.909 933.824 274.301 932.926 275.54C932.04 276.767 930.864 277.744 929.398 278.472C927.943 279.188 926.25 279.545 924.318 279.545ZM951.131 279.545C948.767 279.545 946.693 278.983 944.909 277.858C943.136 276.733 941.75 275.159 940.75 273.136C939.761 271.114 939.267 268.75 939.267 266.045C939.267 263.318 939.761 260.937 940.75 258.903C941.75 256.869 943.136 255.29 944.909 254.165C946.693 253.04 948.767 252.477 951.131 252.477C953.494 252.477 955.563 253.04 957.335 254.165C959.119 255.29 960.506 256.869 961.494 258.903C962.494 260.937 962.994 263.318 962.994 266.045C962.994 268.75 962.494 271.114 961.494 273.136C960.506 275.159 959.119 276.733 957.335 277.858C955.563 278.983 953.494 279.545 951.131 279.545ZM951.131 275.932C952.926 275.932 954.403 275.472 955.562 274.551C956.722 273.631 957.58 272.42 958.136 270.92C958.693 269.42 958.972 267.795 958.972 266.045C958.972 264.295 958.693 262.665 958.136 261.153C957.58 259.642 956.722 258.42 955.562 257.489C954.403 256.557 952.926 256.091 951.131 256.091C949.335 256.091 947.858 256.557 946.699 257.489C945.54 258.42 944.682 259.642 944.125 261.153C943.568 262.665 943.29 264.295 943.29 266.045C943.29 267.795 943.568 269.42 944.125 270.92C944.682 272.42 945.54 273.631 946.699 274.551C947.858 275.472 949.335 275.932 951.131 275.932ZM969.135 279V252.818H973.021V256.909H973.362C973.908 255.511 974.788 254.426 976.004 253.653C977.22 252.869 978.68 252.477 980.385 252.477C982.112 252.477 983.55 252.869 984.697 253.653C985.857 254.426 986.76 255.511 987.408 256.909H987.68C988.351 255.557 989.357 254.483 990.697 253.688C992.038 252.881 993.646 252.477 995.521 252.477C997.862 252.477 999.777 253.21 1001.27 254.676C1002.75 256.131 1003.5 258.398 1003.5 261.477V279H999.476V261.477C999.476 259.545 998.947 258.165 997.891 257.335C996.834 256.506 995.589 256.091 994.158 256.091C992.317 256.091 990.891 256.648 989.879 257.761C988.868 258.864 988.362 260.261 988.362 261.955V279H984.271V261.068C984.271 259.58 983.788 258.381 982.822 257.472C981.857 256.551 980.612 256.091 979.089 256.091C978.044 256.091 977.067 256.369 976.158 256.926C975.26 257.483 974.533 258.256 973.976 259.244C973.43 260.222 973.158 261.352 973.158 262.636V279H969.135ZM1010.85 288.818V252.818H1014.74V256.977H1015.22C1015.51 256.523 1015.92 255.943 1016.44 255.239C1016.98 254.523 1017.74 253.886 1018.73 253.33C1019.73 252.761 1021.08 252.477 1022.79 252.477C1024.99 252.477 1026.93 253.028 1028.62 254.131C1030.3 255.233 1031.61 256.795 1032.55 258.818C1033.5 260.841 1033.97 263.227 1033.97 265.977C1033.97 268.75 1033.5 271.153 1032.55 273.188C1031.61 275.21 1030.3 276.778 1028.63 277.892C1026.96 278.994 1025.04 279.545 1022.85 279.545C1021.17 279.545 1019.83 279.267 1018.81 278.71C1017.8 278.142 1017.02 277.5 1016.48 276.784C1015.93 276.057 1015.51 275.455 1015.22 274.977H1014.88V288.818H1010.85ZM1014.81 265.909C1014.81 267.886 1015.1 269.631 1015.68 271.142C1016.26 272.642 1017.1 273.818 1018.22 274.67C1019.33 275.511 1020.69 275.932 1022.31 275.932C1023.99 275.932 1025.39 275.489 1026.52 274.602C1027.65 273.705 1028.51 272.5 1029.08 270.989C1029.65 269.466 1029.94 267.773 1029.94 265.909C1029.94 264.068 1029.66 262.409 1029.09 260.932C1028.54 259.443 1027.69 258.267 1026.55 257.403C1025.43 256.528 1024.01 256.091 1022.31 256.091C1020.67 256.091 1019.3 256.506 1018.18 257.335C1017.07 258.153 1016.23 259.301 1015.66 260.778C1015.09 262.244 1014.81 263.955 1014.81 265.909ZM1047.81 279.614C1046.15 279.614 1044.64 279.301 1043.29 278.676C1041.94 278.04 1040.87 277.125 1040.07 275.932C1039.27 274.727 1038.88 273.273 1038.88 271.568C1038.88 270.068 1039.17 268.852 1039.76 267.92C1040.35 266.977 1041.14 266.239 1042.13 265.705C1043.12 265.17 1044.21 264.773 1045.4 264.511C1046.61 264.239 1047.82 264.023 1049.04 263.864C1050.63 263.659 1051.92 263.506 1052.9 263.403C1053.9 263.29 1054.63 263.102 1055.09 262.841C1055.55 262.58 1055.79 262.125 1055.79 261.477V261.341C1055.79 259.659 1055.33 258.352 1054.4 257.42C1053.5 256.489 1052.12 256.023 1050.26 256.023C1048.34 256.023 1046.84 256.443 1045.75 257.284C1044.65 258.125 1043.89 259.023 1043.44 259.977L1039.63 258.614C1040.31 257.023 1041.22 255.784 1042.35 254.898C1043.5 254 1044.75 253.375 1046.1 253.023C1047.47 252.659 1048.81 252.477 1050.13 252.477C1050.97 252.477 1051.93 252.58 1053.02 252.784C1054.13 252.977 1055.19 253.381 1056.21 253.994C1057.25 254.608 1058.1 255.534 1058.79 256.773C1059.47 258.011 1059.81 259.67 1059.81 261.75V279H1055.79V275.455H1055.58C1055.31 276.023 1054.85 276.631 1054.22 277.278C1053.58 277.926 1052.73 278.477 1051.68 278.932C1050.62 279.386 1049.33 279.614 1047.81 279.614ZM1048.42 276C1050.01 276 1051.35 275.688 1052.44 275.062C1053.55 274.438 1054.38 273.631 1054.93 272.642C1055.5 271.653 1055.79 270.614 1055.79 269.523V265.841C1055.62 266.045 1055.24 266.233 1054.66 266.403C1054.09 266.562 1053.43 266.705 1052.68 266.83C1051.94 266.943 1051.22 267.045 1050.52 267.136C1049.83 267.216 1049.26 267.284 1048.83 267.341C1047.79 267.477 1046.81 267.699 1045.9 268.006C1045 268.301 1044.27 268.75 1043.72 269.352C1043.17 269.943 1042.9 270.75 1042.9 271.773C1042.9 273.17 1043.42 274.227 1044.45 274.943C1045.5 275.648 1046.82 276 1048.42 276ZM1071.17 263.25V279H1067.15V252.818H1071.04V256.909H1071.38C1071.99 255.58 1072.92 254.511 1074.17 253.705C1075.42 252.886 1077.04 252.477 1079.01 252.477C1080.79 252.477 1082.34 252.841 1083.67 253.568C1085 254.284 1086.03 255.375 1086.77 256.841C1087.51 258.295 1087.88 260.136 1087.88 262.364V279H1083.86V262.636C1083.86 260.58 1083.32 258.977 1082.25 257.83C1081.18 256.67 1079.72 256.091 1077.86 256.091C1076.57 256.091 1075.42 256.369 1074.41 256.926C1073.41 257.483 1072.62 258.295 1072.04 259.364C1071.46 260.432 1071.17 261.727 1071.17 263.25ZM1096.88 288.818C1096.2 288.818 1095.59 288.761 1095.06 288.648C1094.52 288.545 1094.15 288.443 1093.95 288.341L1094.97 284.795C1095.95 285.045 1096.81 285.136 1097.56 285.068C1098.31 285 1098.98 284.665 1099.56 284.062C1100.15 283.472 1100.69 282.511 1101.18 281.182L1101.93 279.136L1092.25 252.818H1096.61L1103.84 273.682H1104.11L1111.34 252.818H1115.7L1104.59 282.818C1104.09 284.17 1103.47 285.29 1102.73 286.176C1101.99 287.074 1101.13 287.739 1100.15 288.17C1099.19 288.602 1098.1 288.818 1096.88 288.818ZM1126.24 244.091V247.159C1126.24 248.091 1126.07 249.085 1125.73 250.142C1125.4 251.188 1124.91 252.205 1124.27 253.193C1123.63 254.17 1122.86 255.023 1121.95 255.75L1119.77 253.977C1120.48 252.955 1121.1 251.892 1121.62 250.79C1122.16 249.676 1122.42 248.489 1122.42 247.227V244.091H1126.24ZM1146.4 258.682L1142.79 259.705C1142.56 259.102 1142.22 258.517 1141.78 257.949C1141.35 257.369 1140.76 256.892 1140.01 256.517C1139.26 256.142 1138.3 255.955 1137.13 255.955C1135.52 255.955 1134.19 256.324 1133.12 257.062C1132.06 257.79 1131.54 258.716 1131.54 259.841C1131.54 260.841 1131.9 261.631 1132.63 262.21C1133.35 262.79 1134.49 263.273 1136.04 263.659L1139.92 264.614C1142.26 265.182 1144.01 266.051 1145.15 267.222C1146.3 268.381 1146.88 269.875 1146.88 271.705C1146.88 273.205 1146.44 274.545 1145.58 275.727C1144.73 276.909 1143.54 277.841 1142 278.523C1140.47 279.205 1138.68 279.545 1136.65 279.545C1133.98 279.545 1131.77 278.966 1130.02 277.807C1128.27 276.648 1127.16 274.955 1126.69 272.727L1130.51 271.773C1130.88 273.182 1131.56 274.239 1132.58 274.943C1133.6 275.648 1134.93 276 1136.58 276C1138.46 276 1139.94 275.602 1141.05 274.807C1142.16 274 1142.72 273.034 1142.72 271.909C1142.72 271 1142.4 270.239 1141.76 269.625C1141.13 269 1140.15 268.534 1138.83 268.227L1134.47 267.205C1132.07 266.636 1130.31 265.756 1129.18 264.562C1128.07 263.358 1127.51 261.852 1127.51 260.045C1127.51 258.568 1127.93 257.261 1128.76 256.125C1129.6 254.989 1130.74 254.097 1132.18 253.449C1133.64 252.801 1135.29 252.477 1137.13 252.477C1139.72 252.477 1141.75 253.045 1143.23 254.182C1144.72 255.318 1145.77 256.818 1146.4 258.682ZM1172.36 279L1164.39 252.818H1168.61L1174.27 272.864H1174.55L1180.14 252.818H1184.43L1189.95 272.795H1190.23L1195.89 252.818H1200.11L1192.14 279H1188.18L1182.45 258.886H1182.05L1176.32 279H1172.36ZM1215.18 279.545C1212.81 279.545 1210.74 278.983 1208.96 277.858C1207.18 276.733 1205.8 275.159 1204.8 273.136C1203.81 271.114 1203.31 268.75 1203.31 266.045C1203.31 263.318 1203.81 260.937 1204.8 258.903C1205.8 256.869 1207.18 255.29 1208.96 254.165C1210.74 253.04 1212.81 252.477 1215.18 252.477C1217.54 252.477 1219.61 253.04 1221.38 254.165C1223.17 255.29 1224.55 256.869 1225.54 258.903C1226.54 260.937 1227.04 263.318 1227.04 266.045C1227.04 268.75 1226.54 271.114 1225.54 273.136C1224.55 275.159 1223.17 276.733 1221.38 277.858C1219.61 278.983 1217.54 279.545 1215.18 279.545ZM1215.18 275.932C1216.97 275.932 1218.45 275.472 1219.61 274.551C1220.77 273.631 1221.63 272.42 1222.18 270.92C1222.74 269.42 1223.02 267.795 1223.02 266.045C1223.02 264.295 1222.74 262.665 1222.18 261.153C1221.63 259.642 1220.77 258.42 1219.61 257.489C1218.45 256.557 1216.97 256.091 1215.18 256.091C1213.38 256.091 1211.9 256.557 1210.75 257.489C1209.59 258.42 1208.73 259.642 1208.17 261.153C1207.62 262.665 1207.34 264.295 1207.34 266.045C1207.34 267.795 1207.62 269.42 1208.17 270.92C1208.73 272.42 1209.59 273.631 1210.75 274.551C1211.9 275.472 1213.38 275.932 1215.18 275.932ZM1233.18 279V252.818H1237.07V256.773H1237.34C1237.82 255.477 1238.68 254.426 1239.93 253.619C1241.18 252.812 1242.59 252.409 1244.16 252.409C1244.45 252.409 1244.82 252.415 1245.27 252.426C1245.71 252.437 1246.05 252.455 1246.27 252.477V256.568C1246.14 256.534 1245.82 256.483 1245.34 256.415C1244.86 256.335 1244.35 256.295 1243.82 256.295C1242.55 256.295 1241.41 256.562 1240.41 257.097C1239.42 257.619 1238.64 258.347 1238.06 259.278C1237.49 260.199 1237.2 261.25 1237.2 262.432V279H1233.18ZM1254.79 269.455L1254.72 264.477H1255.54L1267 252.818H1271.97L1259.77 265.159H1259.43L1254.79 269.455ZM1251.04 279V244.091H1255.06V279H1251.04ZM1267.68 279L1257.45 266.045L1260.31 263.25L1272.79 279H1267.68ZM1294.67 263.25V279H1290.65V244.091H1294.67V256.909H1295.01C1295.63 255.557 1296.55 254.483 1297.78 253.688C1299.01 252.881 1300.66 252.477 1302.72 252.477C1304.5 252.477 1306.07 252.835 1307.41 253.551C1308.75 254.256 1309.79 255.341 1310.53 256.807C1311.28 258.261 1311.65 260.114 1311.65 262.364V279H1307.63V262.636C1307.63 260.557 1307.09 258.949 1306.01 257.812C1304.94 256.665 1303.46 256.091 1301.56 256.091C1300.24 256.091 1299.06 256.369 1298.01 256.926C1296.98 257.483 1296.16 258.295 1295.56 259.364C1294.97 260.432 1294.67 261.727 1294.67 263.25ZM1329.99 279.545C1327.46 279.545 1325.29 278.989 1323.46 277.875C1321.64 276.75 1320.24 275.182 1319.25 273.17C1318.27 271.148 1317.78 268.795 1317.78 266.114C1317.78 263.432 1318.27 261.068 1319.25 259.023C1320.24 256.966 1321.61 255.364 1323.37 254.216C1325.15 253.057 1327.21 252.477 1329.58 252.477C1330.94 252.477 1332.29 252.705 1333.62 253.159C1334.95 253.614 1336.16 254.352 1337.25 255.375C1338.34 256.386 1339.21 257.727 1339.86 259.398C1340.5 261.068 1340.83 263.125 1340.83 265.568V267.273H1320.65V263.795H1336.74C1336.74 262.318 1336.44 261 1335.85 259.841C1335.27 258.682 1334.44 257.767 1333.36 257.097C1332.29 256.426 1331.03 256.091 1329.58 256.091C1327.98 256.091 1326.59 256.489 1325.42 257.284C1324.26 258.068 1323.37 259.091 1322.74 260.352C1322.12 261.614 1321.81 262.966 1321.81 264.409V266.727C1321.81 268.705 1322.15 270.381 1322.83 271.756C1323.52 273.119 1324.48 274.159 1325.71 274.875C1326.94 275.58 1328.36 275.932 1329.99 275.932C1331.04 275.932 1332 275.784 1332.85 275.489C1333.71 275.182 1334.46 274.727 1335.08 274.125C1335.71 273.511 1336.19 272.75 1336.53 271.841L1340.42 272.932C1340.01 274.25 1339.32 275.409 1338.36 276.409C1337.39 277.398 1336.2 278.17 1334.78 278.727C1333.36 279.273 1331.76 279.545 1329.99 279.545ZM1346.95 279V252.818H1350.83V256.773H1351.11C1351.58 255.477 1352.45 254.426 1353.7 253.619C1354.95 252.812 1356.36 252.409 1357.92 252.409C1358.22 252.409 1358.59 252.415 1359.03 252.426C1359.48 252.437 1359.81 252.455 1360.04 252.477V256.568C1359.9 256.534 1359.59 256.483 1359.1 256.415C1358.62 256.335 1358.12 256.295 1357.58 256.295C1356.31 256.295 1355.17 256.562 1354.17 257.097C1353.19 257.619 1352.4 258.347 1351.82 259.278C1351.25 260.199 1350.97 261.25 1350.97 262.432V279H1346.95ZM1374.99 279.545C1372.46 279.545 1370.29 278.989 1368.46 277.875C1366.64 276.75 1365.24 275.182 1364.25 273.17C1363.27 271.148 1362.78 268.795 1362.78 266.114C1362.78 263.432 1363.27 261.068 1364.25 259.023C1365.24 256.966 1366.61 255.364 1368.37 254.216C1370.15 253.057 1372.21 252.477 1374.58 252.477C1375.94 252.477 1377.29 252.705 1378.62 253.159C1379.95 253.614 1381.16 254.352 1382.25 255.375C1383.34 256.386 1384.21 257.727 1384.86 259.398C1385.5 261.068 1385.83 263.125 1385.83 265.568V267.273H1365.65V263.795H1381.74C1381.74 262.318 1381.44 261 1380.85 259.841C1380.27 258.682 1379.44 257.767 1378.36 257.097C1377.29 256.426 1376.03 256.091 1374.58 256.091C1372.98 256.091 1371.59 256.489 1370.42 257.284C1369.26 258.068 1368.37 259.091 1367.74 260.352C1367.12 261.614 1366.81 262.966 1366.81 264.409V266.727C1366.81 268.705 1367.15 270.381 1367.83 271.756C1368.52 273.119 1369.48 274.159 1370.71 274.875C1371.94 275.58 1373.36 275.932 1374.99 275.932C1376.04 275.932 1377 275.784 1377.85 275.489C1378.71 275.182 1379.46 274.727 1380.08 274.125C1380.71 273.511 1381.19 272.75 1381.53 271.841L1385.42 272.932C1385.01 274.25 1384.32 275.409 1383.36 276.409C1382.39 277.398 1381.2 278.17 1379.78 278.727C1378.36 279.273 1376.76 279.545 1374.99 279.545Z" fill="white"/>
</svg>
