<svg width="124" height="124" viewBox="0 0 124 124" fill="none" xmlns="http://www.w3.org/2000/svg">
<circle cx="62" cy="62" r="62" fill="#6DCA63"/>
<g clip-path="url(#clip0_84_4860)">
<path d="M46.075 41.5833C46.25 44.1792 46.6875 46.7167 47.3875 49.1375L43.8875 52.6375C42.6917 49.1375 41.9333 45.4333 41.6708 41.5833H46.075ZM74.8333 76.6417C77.3125 77.3417 79.85 77.7792 82.4167 77.9542V82.3C78.5667 82.0375 74.8625 81.2792 71.3333 80.1125L74.8333 76.6417ZM48.875 35.75H38.6667C37.0625 35.75 35.75 37.0625 35.75 38.6667C35.75 66.0542 57.9458 88.25 85.3333 88.25C86.9375 88.25 88.25 86.9375 88.25 85.3333V75.1542C88.25 73.55 86.9375 72.2375 85.3333 72.2375C81.7167 72.2375 78.1875 71.6542 74.9208 70.575C74.6292 70.4583 74.3083 70.4292 74.0167 70.4292C73.2583 70.4292 72.5292 70.7208 71.9458 71.275L65.5292 77.6917C57.275 73.4625 50.5083 66.725 46.3083 58.4708L52.725 52.0542C53.5417 51.2375 53.775 50.1 53.4542 49.0792C52.375 45.8125 51.7917 42.3125 51.7917 38.6667C51.7917 37.0625 50.4792 35.75 48.875 35.75Z" fill="#323232"/>
</g>
<defs>
<clipPath id="clip0_84_4860">
<rect width="70" height="70" fill="white" transform="translate(27 27)"/>
</clipPath>
</defs>
</svg>
