<svg width="63" height="63" viewBox="0 0 63 63" fill="none" xmlns="http://www.w3.org/2000/svg">
<g clip-path="url(#clip0_84_4870)">
<path d="M40.8188 34.125C42.7875 34.125 44.52 33.0487 45.4125 31.4213L54.81 14.385C55.7812 12.6525 54.5213 10.5 52.5262 10.5H13.6763L11.2087 5.25H2.625V10.5H7.875L17.325 30.4237L13.7812 36.8287C11.865 40.3462 14.385 44.625 18.375 44.625H49.875V39.375H18.375L21.2625 34.125H40.8188ZM16.17 15.75H48.0637L40.8188 28.875H22.3912L16.17 15.75ZM18.375 47.25C15.4875 47.25 13.1513 49.6125 13.1513 52.5C13.1513 55.3875 15.4875 57.75 18.375 57.75C21.2625 57.75 23.625 55.3875 23.625 52.5C23.625 49.6125 21.2625 47.25 18.375 47.25ZM44.625 47.25C41.7375 47.25 39.4012 49.6125 39.4012 52.5C39.4012 55.3875 41.7375 57.75 44.625 57.75C47.5125 57.75 49.875 55.3875 49.875 52.5C49.875 49.6125 47.5125 47.25 44.625 47.25Z" fill="#323232"/>
</g>
<defs>
<clipPath id="clip0_84_4870">
<rect width="63" height="63" fill="white"/>
</clipPath>
</defs>
</svg>
